<svg id="Layer_1" data-name="Layer 1" xmlns="http://www.w3.org/2000/svg" viewBox="0 0 235.54 33.02"><defs><style>.cls-1{fill:#fff;}</style></defs><title>Artboard 3</title><path class="cls-1" d="M2.05,32.94H0V0H2v17H7.86c2.55,0,5.18-.13,7-1.68a7.65,7.65,0,0,0,2.55-5.85A7.68,7.68,0,0,0,13.91,3c-1.46-.88-3.53-1-5.35-1H3.81V0H8.87A12.36,12.36,0,0,1,15,1.25a10,10,0,0,1,4.43,8.33,9.55,9.55,0,0,1-3.37,7.48c-2.42,2-5.4,2-8.28,2H2.05Z"/><path class="cls-1" d="M26.15,29.38H24.08V0h2.07Z"/><path class="cls-1" d="M39.71,32.9H24.06V31.07H39.71Z"/><path class="cls-1" d="M44.08,32.89H41.81L55.91,0h2.16l14.1,32.89H69.91L57,2.62Z"/><path class="cls-1" d="M101.74,32.93H99.5l-.12-.17L77.73,3V32.93H75.68V0h2.53L99.64,29.57V0h2.1Z"/><path class="cls-1" d="M150.46,2H131V.21h19.46Z"/><path class="cls-1" d="M141.78,33h-2.1V3.4h2.1Z"/><path class="cls-1" d="M127.29,17.87H112.82V16h14.46Z"/><path class="cls-1" d="M110.43,32.93h-1.65V0h18.34V1.88H110.83V31.09h16.29v1.84Z"/><path class="cls-1" d="M192.68,32.95h-2.27L177.49,2.68,164.57,32.95h-2.27L176.41.06h2.16l.1.24Z"/><path class="cls-1" d="M235.54,2H216.08V.14h19.46Z"/><path class="cls-1" d="M226.84,32.95h-2.1V3.34h2.1Z"/><path class="cls-1" d="M216.63,32.9H214.4l-.12-.2L206.19,18.9c-1.08.1-2.19.1-3.18.1h-5.76V32.9H195.2V0h2V5.58l.09,11.56h5.81c2.55,0,5.18-.13,7-1.68a7.75,7.75,0,0,0,2.46-5.95,7.68,7.68,0,0,0-3.51-6.58c-1.46-.88-3.53-1-5.35-1H199V0h5.05a12.36,12.36,0,0,1,6.17,1.21,10,10,0,0,1,4.43,8.33A9.55,9.55,0,0,1,211.29,17a8,8,0,0,1-3.06,1.52Z"/></svg>